<?xml version="1.0" encoding="UTF-8"?>
<svg id="_图层_1" data-name="图层 1" xmlns="http://www.w3.org/2000/svg" xmlns:xlink="http://www.w3.org/1999/xlink" viewBox="0 0 2484.79 1851.56">
  <defs>
    <style>
      .cls-1 {
        fill: url(#_未命名的渐变_8);
      }

      .cls-1, .cls-2, .cls-3, .cls-4, .cls-5, .cls-6, .cls-7, .cls-8, .cls-9, .cls-10, .cls-11 {
        stroke-width: 0px;
      }

      .cls-2 {
        fill: url(#_未命名的渐变_8-2);
      }

      .cls-3 {
        fill: url(#_未命名的渐变_25-4);
      }

      .cls-4 {
        fill: url(#_未命名的渐变_1079);
      }

      .cls-5 {
        fill: url(#_未命名的渐变_8-3);
      }

      .cls-6 {
        fill: url(#_未命名的渐变_25);
      }

      .cls-7 {
        fill: none;
      }

      .cls-8 {
        fill: url(#_未命名的渐变_1288);
      }

      .cls-9 {
        fill: url(#_未命名的渐变_25-3);
      }

      .cls-10 {
        fill: url(#_未命名的渐变_25-2);
      }

      .cls-11 {
        fill: url(#_未命名的渐变_3);
      }
    </style>
    <linearGradient id="_未命名的渐变_8" data-name="未命名的渐变 8" x1="3857.71" y1="268.65" x2="4099.99" y2="268.65" gradientTransform="translate(4930.62) rotate(-180) scale(1 -1)" gradientUnits="userSpaceOnUse">
      <stop offset="0" stop-color="#219ced"/>
      <stop offset="1" stop-color="#1821e6"/>
    </linearGradient>
    <linearGradient id="_未命名的渐变_8-2" data-name="未命名的渐变 8" x1="4042.03" y1="68.72" x2="4181.76" y2="68.72" xlink:href="#_未命名的渐变_8"/>
    <linearGradient id="_未命名的渐变_8-3" data-name="未命名的渐变 8" x1="4196.03" y1="231.01" x2="4298.72" y2="231.01" xlink:href="#_未命名的渐变_8"/>
    <linearGradient id="_未命名的渐变_3" data-name="未命名的渐变 3" x1="723.93" y1="173.47" x2="1802.18" y2="867.19" gradientUnits="userSpaceOnUse">
      <stop offset="0" stop-color="#1821e6"/>
      <stop offset="1" stop-color="#219ced"/>
    </linearGradient>
    <linearGradient id="_未命名的渐变_1288" data-name="未命名的渐变 1288" x1="821.87" y1="398.61" x2="1814.85" y2="809.04" gradientUnits="userSpaceOnUse">
      <stop offset=".07" stop-color="#271dab"/>
      <stop offset=".27" stop-color="#2926b0"/>
      <stop offset=".6" stop-color="#313fbf"/>
      <stop offset=".87" stop-color="#3959ce"/>
    </linearGradient>
    <linearGradient id="_未命名的渐变_25" data-name="未命名的渐变 25" x1="3180.97" y1="1811.9" x2="4827.56" y2="965.61" gradientTransform="translate(4930.62) rotate(-180) scale(1 -1)" gradientUnits="userSpaceOnUse">
      <stop offset="0" stop-color="#1064e5"/>
      <stop offset="1" stop-color="#7f63f4"/>
    </linearGradient>
    <linearGradient id="_未命名的渐变_25-2" data-name="未命名的渐变 25" x1="2842.94" y1="1159.21" x2="4484.58" y2="315.46" xlink:href="#_未命名的渐变_25"/>
    <linearGradient id="_未命名的渐变_1079" data-name="未命名的渐变 1079" x1="459.09" y1="627.72" x2="520.2" y2="1509.39" gradientUnits="userSpaceOnUse">
      <stop offset="0" stop-color="#7253e8"/>
      <stop offset="1" stop-color="#5b33ad"/>
    </linearGradient>
    <linearGradient id="_未命名的渐变_25-3" data-name="未命名的渐变 25" x1="3095.78" y1="1643.15" x2="4736.78" y2="799.74" xlink:href="#_未命名的渐变_25"/>
    <linearGradient id="_未命名的渐变_25-4" data-name="未命名的渐变 25" x1="3073.58" y1="1600.82" x2="4714.65" y2="757.36" xlink:href="#_未命名的渐变_25"/>
  </defs>
  <path class="cls-7" d="M1242.49,1451.55c8.28,0,16.49-.29,24.66-.75-16.5-.01-33,0-49.5-.02,8.23.47,16.5.77,24.85.77Z"/>
  <g>
    <ellipse class="cls-1" cx="951.76" cy="268.65" rx="121.14" ry="119.15"/>
    <ellipse class="cls-2" cx="818.72" cy="68.72" rx="69.87" ry="68.72"/>
    <ellipse class="cls-5" cx="683.24" cy="231.01" rx="51.34" ry="50.5"/>
    <path class="cls-11" d="M1204.18,693.98c88.64,51.12,181.7,101.09,283.17,122.04,92.26,19.04,222.5,13.23,288.01-63.07,58.07-67.62,14.05-169.04-19.82-237.04-1.24-.17-2.44-.4-3.53-.73l-.16-.08c-5.72-1.87-9.54-6.27-12.11-14-14.1-42.37-83.1-158.12-184.16-243.5-37.83-31.97-80.67-58.07-127.15-75.83-.21-.09-.41-.16-.62-.24-47.14-17.9-95.84-28.76-146.48-33.51-56.81-5.35-112.48-.94-167.76,10.55-1.29.27-2.55.62-3.84.9,22.12,30.9,35.22,68.51,35.22,109.17,0,104.94-86.49,190.02-193.19,190.02-67.19,0-126.32-33.78-160.93-84.97-27.87,38.6-49.08,81.07-64.1,126.33-10.7,32.24-16.97,65.94-24.64,99.11-1.3,5.63-3.7,9.1-7.56,10.93l.12.18s256.38-62.29,509.52,83.73Z"/>
    <path class="cls-8" d="M1888.28,627.49c-23.34-32.55-56.34-61.01-89.1-84.22-2.94-2.09-33.27-24.22-43.64-27.37,33.88,68,77.89,169.42,19.82,237.04-65.51,76.29-195.75,82.11-288.01,63.07-101.47-20.95-194.54-70.91-283.17-122.04-253.15-146.01-509.52-83.73-509.52-83.73l-.12-.18c-2.03.96-4.33,1.61-7.35,1.58,30.67-1.29,61.02,2.77,91.53,6.04,145.18,15.53,276.96,81.96,400.97,154.5,125.14,73.2,260.74,132.58,404.16,162.79,112.06,23.61,248.44,13.41,313.12-94.11,39.67-65.94,36.41-150.47-8.7-213.39Z"/>
    <path class="cls-6" d="M773.51,1450.81c179.79.12,359.58.17,539.37.16l-251.37-133.35c-72.78,76.84-174.43,126.83-288,133.19Z"/>
    <path class="cls-10" d="M2089.28,614.81c-49.94-38.36-105.51-67.18-167.54-83.43-37.88-9.92-76.32-14.47-115.07-17.15-11.94-.82-31.54-.72-43.27,1.64-3.22.65-5.51.3-7.86.03,10.89,4.5,39.91,26.13,42.85,28.22,32.76,23.21,63.24,50.66,86.58,83.22,45.11,62.92,46.93,146.71,7.26,212.65-64.69,107.51-195.59,115.84-307.65,92.24-143.42-30.21-275.47-97.45-400.61-170.65-89.5-52.35-185.38-97.77-286.25-124.37,162.59,59.45,278.44,213.42,278.44,394.05,0,66.64-15.83,129.61-43.9,185.6l350.22,185.79c59.76,31.7,126.6,48.29,194.51,48.3h1.05c34.68,0,69.38-.72,104.03.36,104.39,3.25,198.76-26.43,284.27-83.87,256.19-172.11,267.57-564.68,22.94-752.62Z"/>
    <path class="cls-4" d="M321.55,1031.25c0-224.99,179.74-408.69,405.68-419.76-118.38-6.38-242.25,7.29-337.36,82.13-93.1,66.11-151.84,171.73-167,282.85-7.44,54.47-4.39,110.28,10.21,163.39,50.31,183,225.92,310.72,417.06,310.91,24.62.03,49.25,0,73.87.02-224.42-12.66-402.46-195.62-402.46-419.53Z"/>
    <path class="cls-7" d="M897.72,637.21c-46.36-16.95-96.5-26.26-148.86-26.26-7.25,0-14.46.19-21.62.54,17.46.94,34.8,2.3,51.9,3.98,40.23,3.95,79.76,11.5,118.58,21.74Z"/>
    <path class="cls-9" d="M722.31,1019.89c-28.9,0-52.32,23.05-52.32,51.47s23.43,51.46,52.32,51.46,52.32-23.04,52.32-51.46-23.42-51.47-52.32-51.47Z"/>
    <path class="cls-3" d="M897.72,637.21c-38.82-10.24-78.36-17.79-118.58-21.74-17.11-1.68-34.45-3.04-51.9-3.98-225.95,11.08-405.68,194.77-405.68,419.76s178.04,406.87,402.46,419.53c16.5.01,33,0,49.5.02,113.57-6.36,215.22-56.35,288-133.19l-229.49-121.74c-36.74,27.48-84.59,40.87-134.75,32.21-81.62-14.08-142.73-85.47-142.75-166.97-.03-104.69,93.81-183.87,198.31-168.83,62.57,9.01,114.17,53.51,136.55,111.68,12.37,32.16,13.2,61.35,8.03,88.3l234.85,124.58c28.06-55.98,43.9-118.96,43.9-185.6,0-180.63-115.85-334.6-278.44-394.05Z"/>
  </g>
</svg>